<svg width="131" height="108" viewBox="0 0 131 108" fill="none" xmlns="http://www.w3.org/2000/svg">
<path d="M44.0176 100.939L70.5466 1.93185C70.8325 0.864919 71.9292 0.231754 72.9961 0.517638L85.0702 3.75288C86.1371 4.03876 86.7703 5.13543 86.4844 6.20237L59.9554 105.21C59.6695 106.277 58.5729 106.91 57.5059 106.624L45.4319 103.389C44.3649 103.103 43.7318 102.006 44.0176 100.939Z" fill="#FF3860"/>
<path d="M0.707107 53.2929L29.2929 24.7071C29.6834 24.3166 30.3166 24.3166 30.7071 24.7071L40.2929 34.2929C40.6834 34.6834 40.6834 35.3166 40.2929 35.7071L22 54L40.2929 72.2929C40.6834 72.6834 40.6834 73.3166 40.2929 73.7071L30.7071 83.2929C30.3166 83.6834 29.6834 83.6834 29.2929 83.2929L0.707107 54.7071C0.316583 54.3166 0.316583 53.6834 0.707107 53.2929Z" fill="#FF3860"/>
<path d="M129.793 54.7071L101.207 83.2929C100.817 83.6834 100.183 83.6834 99.7929 83.2929L90.2071 73.7071C89.8166 73.3166 89.8166 72.6834 90.2071 72.2929L108.5 54L90.2071 35.7071C89.8166 35.3166 89.8166 34.6834 90.2071 34.2929L99.7929 24.7071C100.183 24.3166 100.817 24.3166 101.207 24.7071L129.793 53.2929C130.183 53.6834 130.183 54.3166 129.793 54.7071Z" fill="#FF3860"/>
</svg>
